HIERARCHY
ROOT SpineBase
{
  OFFSET 0.000000 0.000000 0.000000
  CHANNELS 6 Xposition Yposition Zposition Zrotation Xrotation Yrotation
  JOINT SpineMid
  {
    OFFSET -0.000000 31.822287 0.000000
    CHANNELS 3 Zrotation Xrotation Yrotation
    JOINT SpineShoulder
    {
      OFFSET 0.281006 23.613024 -0.821946
      CHANNELS 3 Zrotation Xrotation Yrotation
      JOINT Neck
      {
        OFFSET 0.203396 7.800445 -0.608006
        CHANNELS 3 Zrotation Xrotation Yrotation
        JOINT Head
        {
          OFFSET 3.964451 12.084034 3.826758
          CHANNELS 3 Zrotation Xrotation Yrotation
          End Site
          {
            OFFSET 0 0 0
          }
        }
      }
      JOINT ShoulderLeft
      {
        OFFSET -4.753883 -3.062371 -15.550251
        CHANNELS 3 Zrotation Xrotation Yrotation
        JOINT ElbowLeft
        {
          OFFSET 0.237410 -22.513135 -7.222382
          CHANNELS 3 Zrotation Xrotation Yrotation
          JOINT WristLeft
          {
            OFFSET 5.244794 -18.961600 1.016398
            CHANNELS 3 Zrotation Xrotation Yrotation
            JOINT HandLeft
            {
              OFFSET 1.771728 -6.023195 2.647834
              CHANNELS 3 Zrotation Xrotation Yrotation
              JOINT HandTipLeft
              {
                OFFSET 3.030496 -7.878957 0.211346
                CHANNELS 3 Zrotation Xrotation Yrotation
                End Site
                {
                  OFFSET 0 0 0
                }
              }
              JOINT ThumbLeft
              {
                OFFSET -2.742410 0.907952 -1.452429
                CHANNELS 3 Zrotation Xrotation Yrotation
                End Site
                {
                  OFFSET 0 0 0
                }
              }
            }
          }
        }
      }
      JOINT ShoulderRight
      {
        OFFSET 6.957762 -6.095963 13.041932
        CHANNELS 3 Zrotation Xrotation Yrotation
        JOINT ElbowRight
        {
          OFFSET 2.369369 -26.162348 5.542819
          CHANNELS 3 Zrotation Xrotation Yrotation
          JOINT WristRight
          {
            OFFSET 2.527348 -24.756951 -11.825650
            CHANNELS 3 Zrotation Xrotation Yrotation
            JOINT HandRight
            {
              OFFSET -0.755017 -5.457302 -0.454582
              CHANNELS 3 Zrotation Xrotation Yrotation
              JOINT HandTipRight
              {
                OFFSET -2.187980 -2.901332 -4.234434
                CHANNELS 3 Zrotation Xrotation Yrotation
                End Site
                {
                  OFFSET 0 0 0
                }
              }
              JOINT ThumbRight
              {
                OFFSET -0.512689 0.934999 -7.395962
                CHANNELS 3 Zrotation Xrotation Yrotation
                End Site
                {
                  OFFSET 0 0 0
                }
              }
            }
          }
        }
      }
    }
  }
  JOINT HipLeft
  {
    OFFSET -1.337822 2.454857 -8.848514
    CHANNELS 3 Zrotation Xrotation Yrotation
    JOINT KneeLeft
    {
      OFFSET -9.074526 -35.666969 -3.164554
      CHANNELS 3 Zrotation Xrotation Yrotation
      JOINT AnkleLeft
      {
        OFFSET -10.401209 -34.438623 4.524100
        CHANNELS 3 Zrotation Xrotation Yrotation
        JOINT FootLeft
        {
          OFFSET 10.450834 -3.866380 -7.187831
          CHANNELS 3 Zrotation Xrotation Yrotation
          End Site
          {
            OFFSET 0 0 0
          }
        }
      }
    }
  }
  JOINT HipRight
  {
    OFFSET 3.735917 -0.561460 1.720178
    CHANNELS 3 Zrotation Xrotation Yrotation
    JOINT KneeRight
    {
      OFFSET -4.102489 -38.402103 10.179248
      CHANNELS 3 Zrotation Xrotation Yrotation
      JOINT AnkleRight
      {
        OFFSET -9.478181 -29.247903 6.808712
        CHANNELS 3 Zrotation Xrotation Yrotation
        JOINT FootRight
        {
          OFFSET 6.204903 -5.971528 -3.147571
          CHANNELS 3 Zrotation Xrotation Yrotation
          End Site
          {
            OFFSET 0 0 0
          }
        }
      }
    }
  }
}
MOTION
Frames: 13
Frame Time: 0.033333
-106.174952 76.668501 322.999978 0.298227 1.397721 -64.029606 0.065819 0.070080 64.024402 0.067019 -0.040242 0.004652 2.424508 2.781737 -2.297817 0.000000 0.000000 0.000000 -2.386672 -0.891288 0.579308 4.136998 2.110513 0.183691 -5.940205 -6.478607 -3.928886 1.985288 3.916567 2.629223 0.000000 0.000000 0.000000 0.000000 0.000000 0.000000 9.620635 7.358440 2.412031 63.250213 -7.406926 -29.002037 73.569866 26.487504 2.683804 -88.070002 -14.014697 -106.324507 0.000000 0.000000 0.000000 0.000000 0.000000 0.000000 -1.735191 -0.489057 63.384934 -0.512733 0.957061 -0.689538 1.490481 -3.672290 1.352641 0.000000 0.000000 0.000000 -1.566362 -0.829370 63.430295 -0.258012 2.031233 -1.196066 18.469105 12.228564 6.949173 0.000000 0.000000 0.000000
-106.194112 76.678928 322.853548 0.376544 1.405113 -64.399372 0.061700 0.094733 64.396587 0.073784 -0.026065 0.008830 2.741915 2.841486 -2.479636 0.000000 0.000000 0.000000 -2.416509 -0.843517 0.548789 3.769758 2.076742 0.211359 -5.335747 -5.399129 -3.414081 0.400204 2.208876 2.015831 0.000000 0.000000 0.000000 0.000000 0.000000 0.000000 12.506817 4.089499 2.948689 73.731400 4.199868 -44.695515 70.589503 36.462477 -4.564026 -81.587277 -7.450681 -125.784082 0.000000 0.000000 0.000000 0.000000 0.000000 0.000000 -1.435691 -0.662683 63.830873 -0.604101 1.262203 -0.760333 1.519491 -3.646976 1.349537 0.000000 0.000000 0.000000 -1.237455 -0.722660 63.917002 -0.728043 2.268916 -1.346692 18.670214 12.161369 6.902283 0.000000 0.000000 0.000000
-106.223566 76.704415 322.730480 0.454112 1.399344 -64.834050 0.062286 0.120337 64.834042 0.082657 -0.009877 0.013446 3.155372 2.854857 -2.675835 0.000000 0.000000 0.000000 -2.425087 -0.810368 0.509500 3.394845 2.199072 0.278962 -5.029447 -8.103333 -4.199789 -0.658413 5.599181 3.186117 0.000000 0.000000 0.000000 0.000000 0.000000 0.000000 15.866067 0.879163 3.748306 83.316985 11.495496 -60.547180 54.651793 40.374877 -14.732331 -64.019230 -3.968517 -125.849256 0.000000 0.000000 0.000000 0.000000 0.000000 0.000000 -1.134524 -0.835678 64.346812 -0.662828 1.581302 -0.830103 1.519479 -3.623182 1.342065 0.000000 0.000000 0.000000 -1.023443 -0.600320 64.446668 -1.169499 2.426454 -1.482514 18.866971 12.105453 6.888344 0.000000 0.000000 0.000000
-106.261657 76.720384 322.628153 0.526900 1.406656 -65.192948 0.075707 0.142920 65.195736 0.096909 0.002817 0.018545 3.590406 2.800346 -2.856091 0.000000 0.000000 0.000000 -2.236629 -0.967334 0.405183 2.785406 2.336983 0.355238 -4.893682 -10.687581 -5.039173 0.085758 8.184401 3.937482 0.000000 0.000000 0.000000 0.000000 0.000000 0.000000 20.666923 -1.041232 4.974020 90.313272 16.967886 -75.537190 42.054218 39.771710 -11.772799 -52.383015 14.220793 -124.999483 0.000000 0.000000 0.000000 0.000000 0.000000 0.000000 -0.851466 -0.976918 64.776901 -0.719243 1.862679 -0.888568 1.507169 -3.603503 1.333839 0.000000 0.000000 0.000000 -0.848293 -0.464191 64.891441 -1.604444 2.549780 -1.615383 19.002279 12.153670 7.001295 0.000000 0.000000 0.000000
-106.285364 76.728532 322.533859 0.608410 1.425256 -65.464865 0.078207 0.154578 65.469709 0.102695 0.010615 0.022553 4.159024 2.651918 -3.044247 0.000000 0.000000 0.000000 -2.330893 -0.939999 0.395865 2.767984 2.441482 0.399963 -5.931379 -14.189620 -6.680343 1.828831 11.448524 4.953673 0.000000 0.000000 0.000000 0.000000 0.000000 0.000000 25.884208 -0.622496 6.165585 95.169950 20.076448 -87.171281 19.465001 37.460188 -59.867586 -55.880166 -8.194950 -82.267758 0.000000 0.000000 0.000000 0.000000 0.000000 0.000000 -0.622374 -1.117215 65.106302 -0.747310 2.035348 -0.918453 1.482013 -3.534639 1.308056 0.000000 0.000000 0.000000 -0.706842 -0.366075 65.234092 -1.992973 2.657878 -1.734675 20.544691 14.102206 7.612824 0.000000 0.000000 0.000000
-106.334635 76.770437 322.418953 0.640792 1.504308 -65.511865 0.094806 0.155040 65.516762 0.111435 0.007511 0.024314 4.818371 2.375317 -3.200927 0.000000 0.000000 0.000000 -2.618576 -0.775402 0.467931 3.238250 2.258861 0.352972 -7.563441 -16.478929 -8.218514 4.132400 14.149123 5.735043 0.000000 0.000000 0.000000 0.000000 0.000000 0.000000 32.976393 -1.174159 7.966998 96.901778 22.586979 -98.992856 18.195218 34.066232 -56.079252 -64.111745 -9.417504 -82.899541 0.000000 0.000000 0.000000 0.000000 0.000000 0.000000 -0.270591 -1.160527 65.211174 -0.845950 2.245729 -0.949543 1.440142 -3.488323 1.286611 0.000000 0.000000 0.000000 -0.542547 -0.298738 65.330586 -2.254114 2.724374 -1.813244 20.253615 13.852671 7.709561 0.000000 0.000000 0.000000
-106.383859 76.832986 322.305674 0.676840 1.602249 -65.266886 0.101780 0.146950 65.270927 0.116700 0.006632 0.025020 5.420430 2.035958 -3.313342 0.000000 0.000000 0.000000 -2.967533 -0.553649 0.565033 3.762295 2.023781 0.297752 -8.693139 -19.097217 -9.593732 5.936001 17.596588 6.402600 0.000000 0.000000 0.000000 0.000000 0.000000 0.000000 40.979815 -0.816039 9.891081 93.796484 20.552454 -104.430745 14.214732 30.410014 -53.082514 -66.019906 -11.166941 -81.301074 0.000000 0.000000 0.000000 0.000000 0.000000 0.000000 0.029329 -1.157587 65.001168 -0.948849 2.361491 -0.952736 1.528777 -3.020574 2.048002 0.000000 0.000000 0.000000 -0.467850 -0.366181 65.085284 -2.248317 2.716226 -1.809638 18.151933 11.950156 7.581125 0.000000 0.000000 0.000000
-106.484000 76.940543 322.137708 0.680432 1.767828 -64.813640 0.131995 0.131982 64.815588 0.129482 -0.009723 0.025155 5.720185 1.779228 -3.351183 0.000000 0.000000 0.000000 -3.345549 -0.264880 0.681899 4.405432 1.622450 0.221992 -9.902243 -20.521256 -10.633803 8.105362 19.577776 6.500290 0.000000 0.000000 0.000000 0.000000 0.000000 0.000000 50.536151 0.617727 11.888705 86.637919 17.775163 -106.867809 10.031730 31.339478 -75.403198 -54.155520 -35.360021 -65.505438 0.000000 0.000000 0.000000 0.000000 0.000000 0.000000 0.532415 -1.066888 64.595944 -1.201144 2.572189 -0.968775 1.437815 -2.758987 2.657018 0.000000 0.000000 0.000000 -0.262778 -0.417710 64.648795 -2.281843 2.735398 -1.814448 14.285382 8.146867 6.923829 0.000000 0.000000 0.000000
-106.612844 77.080885 321.952120 0.656450 1.959362 -64.256932 0.166379 0.108830 64.255728 0.140303 -0.033652 0.023746 5.927208 1.663116 -3.398696 0.000000 0.000000 0.000000 -3.819101 0.005198 0.841706 5.309894 1.216764 0.120704 -11.479924 -22.553136 -12.041025 10.411798 22.019916 6.484327 0.000000 0.000000 0.000000 0.000000 0.000000 0.000000 57.948629 2.311216 13.145929 80.204562 15.830237 -107.812399 5.178000 50.679177 172.601584 47.798000 -3.102683 64.307769 0.000000 0.000000 0.000000 0.000000 0.000000 0.000000 1.479956 -1.442237 64.264335 -1.199960 3.390029 -1.147084 1.340438 -2.523262 3.295587 0.000000 0.000000 0.000000 -0.044781 -0.505202 64.095770 -2.221513 2.747446 -1.792827 7.990793 2.203091 5.390050 0.000000 0.000000 0.000000
-106.760089 77.252099 321.764423 0.629854 2.159729 -63.776334 0.191397 0.091965 63.771770 0.152357 -0.051136 0.021978 5.978463 1.523489 -3.392003 0.000000 0.000000 0.000000 -4.338884 0.158840 1.011820 6.256559 0.804420 -0.013365 -11.832321 -22.209154 -11.918830 11.002956 21.445952 6.123412 0.000000 0.000000 0.000000 0.000000 0.000000 0.000000 67.912895 3.820333 15.022708 69.043817 10.257917 -105.881580 20.750285 53.203678 106.637225 48.797099 28.978944 89.197227 0.000000 0.000000 0.000000 0.000000 0.000000 0.000000 1.834635 -0.736524 63.672593 -1.971283 3.169499 -1.025173 1.281957 -2.303401 3.861419 0.000000 0.000000 0.000000 0.152479 -0.591843 63.613923 -2.098695 2.700885 -1.745694 -1.235022 -5.730388 2.198744 0.000000 0.000000 0.000000
-106.926186 77.437452 321.555267 0.586352 2.392407 -63.404149 0.217302 0.077526 63.395682 0.168145 -0.070136 0.019627 6.141287 1.281746 -3.384938 0.000000 0.000000 0.000000 -4.893448 0.196925 1.191335 7.078311 0.378022 -0.194002 -11.068224 -19.754972 -10.519946 10.764231 18.914572 5.582025 0.000000 0.000000 0.000000 0.000000 0.000000 0.000000 77.384713 5.162956 16.842330 57.623864 4.853913 -103.811391 31.627608 40.193639 18.507703 -44.824901 52.112980 -150.633228 0.000000 0.000000 0.000000 0.000000 0.000000 0.000000 2.642525 -0.548185 63.373692 -2.474899 3.558852 -1.067579 1.249692 -2.121429 4.354223 0.000000 0.000000 0.000000 0.398508 -0.700579 63.240393 -2.005070 2.710751 -1.717026 -12.833879 -14.090551 -2.952104 0.000000 0.000000 0.000000
-107.083403 77.618766 321.358648 0.577374 2.594946 -63.198013 0.239220 0.082017 63.187363 0.181551 -0.080112 0.019184 6.176080 0.965023 -3.324361 0.000000 0.000000 0.000000 -5.182514 0.064646 1.263217 7.415166 0.151537 -0.305970 -9.177015 -15.495298 -8.011303 9.114699 13.941663 4.564374 0.000000 0.000000 0.000000 0.000000 0.000000 0.000000 82.907171 4.368196 19.081065 50.795163 1.998974 -104.189225 8.578822 42.125558 -162.975942 39.119776 -28.386033 41.360203 0.000000 0.000000 0.000000 0.000000 0.000000 0.000000 3.411981 -0.384151 63.241249 -3.007845 3.952696 -1.111002 1.266246 -1.976398 4.729736 0.000000 0.000000 0.000000 0.616263 -0.724260 63.056074 -1.988199 2.600760 -1.682172 -24.268596 -20.201151 -8.736205 0.000000 0.000000 0.000000
-107.218067 77.783398 321.189834 0.611086 2.743172 -63.193639 0.250653 0.099220 63.182331 0.183844 -0.074863 0.019776 6.098632 0.476734 -3.171408 0.000000 0.000000 0.000000 -5.194883 -0.234036 1.229476 7.269439 0.171225 -0.345766 -6.965028 -12.845883 -5.976863 7.327643 11.298703 3.652643 0.000000 0.000000 0.000000 0.000000 0.000000 0.000000 84.246580 0.691092 22.232388 50.233492 2.417477 -108.556392 29.324309 42.937943 56.082841 -11.458596 62.271116 163.903331 0.000000 0.000000 0.000000 0.000000 0.000000 0.000000 4.036846 -0.337655 63.316524 -3.389097 4.306869 -1.152263 1.280658 -1.852843 4.962869 0.000000 0.000000 0.000000 0.725693 -0.743184 63.065184 -1.945447 2.392273 -1.621187 -31.787245 -22.915713 -12.239694 0.000000 0.000000 0.000000
